<svg width="45" height="60" viewBox="0 0 64 60" fill="none" xmlns="http://www.w3.org/2000/svg">
<path d="M30.547 5.03C16.4973 5.655 5.41367 16.63 5.45601 29.8225C5.46297 33.7057 6.44695 37.5318 8.3268 40.985L5.52745 53.7375C5.49329 53.8969 5.50223 54.062 5.55345 54.2173C5.60467 54.3726 5.6965 54.5132 5.82046 54.6261C5.94442 54.7389 6.09651 54.8205 6.26265 54.8631C6.4288 54.9058 6.60364 54.9081 6.77101 54.87L20.0904 51.91C23.6181 53.5572 27.4908 54.4387 31.4254 54.49C45.7846 54.6975 57.7546 44.0025 58.2018 30.54C58.6833 16.1025 45.9857 4.3375 30.547 5.0275V5.03ZM46.4408 43.4475C44.5212 45.2548 42.243 46.6864 39.7367 47.6602C37.2304 48.6341 34.5454 49.131 31.8355 49.1225C28.6473 49.1317 25.5004 48.4402 22.6437 47.1025L20.7889 46.235L12.6211 48.05L14.3409 40.2225L13.4254 38.5425C11.9413 35.8244 11.1717 32.8085 11.1817 29.75C11.1817 24.575 13.3302 19.7075 17.2302 16.05C21.1175 12.4143 26.3658 10.3741 31.8355 10.3725C37.3548 10.3725 42.5408 12.3875 46.4408 16.0475C48.3623 17.8366 49.8871 19.9696 50.9261 22.3219C51.965 24.6742 52.4974 27.1986 52.492 29.7475C52.492 34.8775 50.3091 39.8225 46.4408 43.45V43.4475Z" fill="white"/>
<path d="M44.639 35.1125L39.5298 33.7375C39.2001 33.6481 38.851 33.6441 38.5191 33.7259C38.1872 33.8077 37.8847 33.9723 37.6432 34.2025L36.3944 35.3975C36.136 35.6448 35.8062 35.8146 35.4462 35.8858C35.0861 35.9569 34.7119 35.9262 34.3703 35.7975C31.9546 34.88 26.8692 30.64 25.5701 28.5175C25.3879 28.2177 25.3048 27.8734 25.3312 27.5286C25.3576 27.1838 25.4923 26.8544 25.7182 26.5825L26.8083 25.2575C27.0182 25.0036 27.151 24.7006 27.1925 24.3809C27.234 24.0611 27.1826 23.7367 27.0438 23.4425L24.8954 18.8825C24.7738 18.6276 24.5914 18.4029 24.3624 18.2259C24.1334 18.0489 23.8641 17.9245 23.5756 17.8624C23.2872 17.8004 22.9874 17.8025 22.6999 17.8684C22.4124 17.9344 22.145 18.0624 21.9187 18.2425C20.4926 19.375 18.7992 21.0925 18.5955 23C18.233 26.3575 19.7676 30.59 25.5727 35.675C32.28 41.5475 37.6538 42.325 41.1491 41.5275C43.1335 41.0775 44.721 39.27 45.7185 37.7925C45.878 37.5578 45.977 37.291 46.0076 37.0136C46.0381 36.7362 45.9993 36.4559 45.8943 36.1952C45.7893 35.9345 45.621 35.7007 45.403 35.5127C45.185 35.3247 44.9233 35.1876 44.639 35.1125Z" fill="white"/>
</svg>
